<svg width="20" height="32" viewBox="0 0 20 32" fill="none" xmlns="http://www.w3.org/2000/svg">
<path d="M19.485 7.38463C19.485 14.5056 11.5729 14.022 11.5729 18.9451V18.9717C11.5729 19.5396 11.1125 20 10.5445 20H6.22756C5.65962 20 5.19926 19.5396 5.19926 18.9717V18.6813C5.19926 11.0769 12.1444 11.5605 12.1444 8C12.1444 6.46154 11.0015 5.53846 9.11139 5.53846C7.57372 5.53846 6.00241 6.21082 4.574 7.58501C4.20793 7.93714 3.63555 7.95939 3.23552 7.64644L0.396427 5.4258C-0.0820596 5.05158 -0.137555 4.3424 0.285435 3.90635C2.6557 1.46285 5.73578 0 9.81471 0C16.2762 7.91672e-05 19.485 3.47259 19.485 7.38463ZM12.4519 28C12.4519 30.1978 10.6937 32 8.452 32C6.25416 32 4.452 30.1978 4.452 28C4.452 25.8022 6.25416 24.0001 8.452 24.0001C10.6938 24.0001 12.4519 25.8022 12.4519 28Z" fill="#E2C7BB"/>
</svg>
