<svg width="24" height="25" viewBox="0 0 24 25" fill="none" xmlns="http://www.w3.org/2000/svg">
<g clip-path="url(#clip0_545_5470)">
<path d="M17.6938 12.1251C17.691 11.2286 17.5949 10.335 17.4072 9.4584H19.8072C19.6842 9.09254 19.5349 8.73605 19.3605 8.39173H17.1272C16.7076 6.98901 16.0564 5.66633 15.2005 4.4784C14.6538 4.24853 14.0838 4.07865 13.5005 3.97173C14.6732 5.23084 15.5581 6.72992 16.0938 8.36507H12.5005V3.8584H11.5005V8.37173H7.90716C8.44396 6.73363 9.3312 5.23215 10.5072 3.97173C9.92637 4.07697 9.35863 4.24461 8.81383 4.47173C7.95459 5.65468 7.2989 6.97281 6.87383 8.37173H4.62716C4.44956 8.72233 4.29804 9.08553 4.17383 9.4584H6.59383C6.40612 10.335 6.31004 11.2286 6.30716 12.1251C6.30917 13.1056 6.42098 14.0828 6.6405 15.0384H4.28049C4.41765 15.4124 4.58256 15.7756 4.77383 16.1251H6.92716C7.3351 17.4023 7.94018 18.608 8.7205 19.6984C9.27918 19.9379 9.86277 20.1145 10.4605 20.2251C9.3723 19.0384 8.5355 17.6437 8.0005 16.1251H11.5072V20.3517H12.5072V16.1251H16.0005C15.4635 17.6443 14.6244 19.0389 13.5338 20.2251C14.1344 20.1107 14.7202 19.9296 15.2805 19.6851C16.0596 18.5988 16.6646 17.3977 17.0738 16.1251H19.2072C19.3975 15.7821 19.5624 15.4256 19.7005 15.0584H17.3338C17.5638 14.0973 17.6846 13.1133 17.6938 12.1251ZM11.5005 15.0384H7.67383C7.20474 13.2036 7.18416 11.2828 7.61383 9.4384H11.5005V15.0384ZM16.3272 15.0384H12.5005V9.4584H16.3872C16.5787 10.3342 16.6726 11.2286 16.6672 12.1251C16.6734 13.1064 16.5592 14.0848 16.3272 15.0384Z" fill="black"/>
<path d="M12.0007 1.4585C9.89099 1.4585 7.8287 2.08408 6.07457 3.25615C4.32045 4.42822 2.95328 6.09413 2.14594 8.0432C1.33861 9.99228 1.12737 12.137 1.53895 14.2061C1.95052 16.2753 2.96642 18.1759 4.45818 19.6676C5.94994 21.1594 7.85056 22.1753 9.91969 22.5869C11.9888 22.9984 14.1335 22.7872 16.0826 21.9799C18.0317 21.1725 19.6976 19.8054 20.8697 18.0512C22.0417 16.2971 22.6673 14.2348 22.6673 12.1252C22.6673 9.29619 21.5435 6.58308 19.5431 4.58269C17.5427 2.5823 14.8296 1.4585 12.0007 1.4585ZM12.0007 21.4585C10.1547 21.4585 8.35019 20.9111 6.81533 19.8855C5.28047 18.86 4.0842 17.4023 3.37778 15.6969C2.67136 13.9914 2.48653 12.1148 2.84666 10.3043C3.20679 8.49383 4.0957 6.83079 5.40099 5.5255C6.70628 4.22021 8.36932 3.3313 10.1798 2.97117C11.9903 2.61104 13.8669 2.79587 15.5724 3.50229C17.2778 4.2087 18.7355 5.40498 19.761 6.93984C20.7866 8.4747 21.334 10.2792 21.334 12.1252C21.334 14.6005 20.3507 16.9745 18.6003 18.7248C16.85 20.4752 14.476 21.4585 12.0007 21.4585Z" fill="black"/>
</g>
<defs>
<clipPath id="clip0_545_5470">
<rect width="24" height="24" fill="white" transform="translate(0 0.125)"/>
</clipPath>
</defs>
</svg>
