<svg width="11" height="9" viewBox="0 0 11 9" fill="none" xmlns="http://www.w3.org/2000/svg">
<path d="M3.42025 8.35714C3.42025 8.18665 3.46415 8.02313 3.54229 7.90257C3.62043 7.78201 3.72641 7.71429 3.83691 7.71429H6.33691C6.44742 7.71429 6.5534 7.78201 6.63154 7.90257C6.70968 8.02313 6.75358 8.18665 6.75358 8.35714C6.75358 8.52764 6.70968 8.69115 6.63154 8.81171C6.5534 8.93227 6.44742 9 6.33691 9H3.83691C3.72641 9 3.62043 8.93227 3.54229 8.81171C3.46415 8.69115 3.42025 8.52764 3.42025 8.35714ZM1.75358 4.5C1.75358 4.3295 1.79748 4.16599 1.87562 4.04543C1.95376 3.92487 2.05974 3.85714 2.17025 3.85714H8.00358C8.11409 3.85714 8.22007 3.92487 8.29821 4.04543C8.37635 4.16599 8.42025 4.3295 8.42025 4.5C8.42025 4.6705 8.37635 4.83401 8.29821 4.95457C8.22007 5.07513 8.11409 5.14286 8.00358 5.14286H2.17025C2.05974 5.14286 1.95376 5.07513 1.87562 4.95457C1.79748 4.83401 1.75358 4.6705 1.75358 4.5ZM0.0869141 0.642857C0.0869141 0.472361 0.130813 0.308848 0.208953 0.188289C0.287093 0.0677295 0.393074 0 0.503581 0H9.67025C9.78075 0 9.88673 0.0677295 9.96488 0.188289C10.043 0.308848 10.0869 0.472361 10.0869 0.642857C10.0869 0.813353 10.043 0.976867 9.96488 1.09743C9.88673 1.21798 9.78075 1.28571 9.67025 1.28571H0.503581C0.393074 1.28571 0.287093 1.21798 0.208953 1.09743C0.130813 0.976867 0.0869141 0.813353 0.0869141 0.642857Z" fill="#9A9595"/>
</svg>
