<svg width="16" height="17" viewBox="0 0 16 17" fill="none" xmlns="http://www.w3.org/2000/svg">
<g clip-path="url(#clip0_436_6162)">
<path d="M2.34367 14.156C1.57959 13.4181 0.970134 12.5353 0.550862 11.5593C0.13159 10.5832 -0.0891002 9.53348 -0.0983308 8.47125C-0.107561 7.40901 0.0948523 6.35558 0.497099 5.37241C0.899347 4.38924 1.49337 3.49602 2.24451 2.74488C2.99565 1.99374 3.88887 1.39971 4.87204 0.997466C5.85521 0.595219 6.90865 0.392805 7.97088 0.402035C9.03312 0.411266 10.0829 0.631956 11.0589 1.05123C12.0349 1.4705 12.9177 2.07996 13.6557 2.84404C15.1129 4.35286 15.9193 6.37367 15.9011 8.47125C15.8828 10.5688 15.0415 12.5753 13.5582 14.0586C12.075 15.5419 10.0685 16.3832 7.97088 16.4014C5.87331 16.4197 3.85249 15.6133 2.34367 14.156ZM12.5277 13.028C13.7286 11.8271 14.4032 10.1984 14.4032 8.50004C14.4032 6.80171 13.7286 5.17294 12.5277 3.97204C11.3268 2.77114 9.698 2.09648 7.99967 2.09648C6.30134 2.09648 4.67257 2.77114 3.47167 3.97204C2.27077 5.17294 1.59611 6.80171 1.59611 8.50004C1.59611 10.1984 2.27077 11.8271 3.47167 13.028C4.67257 14.2289 6.30134 14.9036 7.99967 14.9036C9.698 14.9036 11.3268 14.2289 12.5277 13.028ZM7.19967 4.50004H8.79967V9.30004H7.19967V4.50004ZM7.19967 10.9H8.79967V12.5H7.19967V10.9Z" fill="#717171"/>
</g>
<defs>
<clipPath id="clip0_436_6162">
<rect width="16" height="16" fill="white" transform="translate(0 0.5)"/>
</clipPath>
</defs>
</svg>
