<svg width="50" height="43" viewBox="0 0 50 43" fill="none" xmlns="http://www.w3.org/2000/svg">
<path fill-rule="evenodd" clip-rule="evenodd" d="M22.2821 41.4056C23.1344 41.8135 23.9728 42.0289 25.1082 42.0289L25.1084 42.0291C27.0634 42.0291 28.8388 41.2431 30.1203 39.9751L45.1215 25.2386C48.1231 22.3814 50.199 18.4308 49.9848 13.9059C49.8527 11.104 49.1454 8.67846 47.935 6.67218C45.6022 2.80537 41.4006 0.495529 35.8471 0.0476607C32.0129 -0.263359 28.476 0.960193 25.8609 3.35629C25.65 3.54767 25.4464 3.74589 25.2495 3.95096C25.1838 4.01607 25.125 4.07744 25.0628 4.14587L19.9646 9.19019L19.0096 10.1335L14.687 4.94783C13.0912 3.18186 11.4885 2.42608 9.11553 2.40576H9.04303C7.65782 2.40576 6.36602 2.79557 5.26415 3.46323C5.16038 3.52419 5.06034 3.58515 4.9601 3.65295C4.86337 3.71744 4.76665 3.78524 4.66992 3.85636C4.65296 3.86903 4.63582 3.88169 4.61863 3.89439C4.56214 3.93613 4.50512 3.97825 4.45224 4.02244C4.38659 4.07324 4.32445 4.12404 4.26231 4.17837C4.21385 4.21901 4.16559 4.25965 4.12065 4.30029C4.03189 4.37744 3.8127 4.59248 3.72787 4.67571L3.72525 4.67828C3.63349 4.76833 3.54475 4.86009 3.45905 4.95355C1.0532 7.46832 0 10.1877 0 14.0083C0 18.0377 1.65799 21.6843 4.33852 24.3159L4.335 24.3192L4.7219 24.702L19.5885 39.4112L20.3933 40.1344C20.9606 40.644 21.5942 41.0766 22.2821 41.4056Z" fill="url(#paint0_linear_116_67)"/>
<defs>
<linearGradient id="paint0_linear_116_67" x1="-18.8492" y1="13.0607" x2="18.8439" y2="61.9214" gradientUnits="userSpaceOnUse">
<stop stop-color="white"/>
<stop offset="1" stop-color="#DB1414"/>
</linearGradient>
</defs>
</svg>
