<svg width="40" height="40" viewBox="0 0 40 40" fill="none" xmlns="http://www.w3.org/2000/svg">
<circle cx="20" cy="20" r="20" fill="#EDA954"/>
<path d="M8.53923 16.4988L4.02244 17.3451L5.65145 18.5897L1.50488 20.0832L5.65145 20.9295L1.50488 23.1698H7.50259L5.65145 25.6589L11.2049 24.6633L5.65145 27.9988H8.53923" stroke="black" stroke-width="0.5" stroke-linejoin="round"/>
<path d="M31.2988 16.4009L34.3488 17.2509L33.2488 18.5009L36.0488 20.0009L33.2488 20.8509L36.0488 23.1009H31.9988L33.2488 25.6009L29.4988 24.6009L33.2488 27.9509H31.2988" stroke="black" stroke-width="0.5" stroke-linejoin="round"/>
<path d="M26.3027 33.7219L25.3681 36.4692L23.9936 35.4784L22.3443 38.0005L21.4097 35.4784L18.9356 38.0005V34.3524L16.1867 35.4784L17.2863 32.1005L13.6027 35.4784V33.7219" stroke="black" stroke-width="0.5" stroke-linejoin="round"/>
<path d="M17.9988 15.0988C17.9988 16.2033 17.1034 18.4988 15.9988 18.4988C14.8943 18.4988 13.5488 16.2033 13.5488 15.0988C13.5488 13.9942 15.8943 12.7488 16.9988 12.7488C18.1034 12.7488 17.9988 13.9942 17.9988 15.0988Z" fill="#ECC365"/>
<path d="M26.2508 15.0504C26.2508 16.155 25.3554 18.4504 24.2508 18.4504C23.1462 18.4504 21.8008 16.155 21.8008 15.0504C21.8008 13.9459 24.1462 12.7004 25.2508 12.7004C26.3554 12.7004 26.2508 13.9459 26.2508 15.0504Z" fill="#ECC365"/>
<path d="M16.4031 15.4977C16.4031 15.6734 16.3454 15.7426 16.2864 15.7856C16.2036 15.846 16.0467 15.8996 15.8031 15.8996C15.5595 15.8996 15.4026 15.846 15.3199 15.7856C15.2609 15.7426 15.2031 15.6734 15.2031 15.4977C15.2031 15.4489 15.2078 15.4164 15.2125 15.3965C15.2163 15.3801 15.22 15.3722 15.2212 15.3699C15.2231 15.3684 15.2284 15.3647 15.2392 15.3596C15.2703 15.3449 15.3291 15.3269 15.4325 15.315C15.5345 15.3031 15.6557 15.2996 15.8031 15.2996C15.9505 15.2996 16.0718 15.3031 16.1737 15.315C16.2771 15.3269 16.3359 15.3449 16.367 15.3596C16.3779 15.3647 16.3832 15.3684 16.385 15.3699C16.3862 15.3722 16.39 15.3801 16.3938 15.3965C16.3984 15.4164 16.4031 15.4489 16.4031 15.4977Z" fill="#18100D" stroke="black"/>
<path d="M24.6482 15.4494C24.6482 15.6251 24.5905 15.6943 24.5315 15.7373C24.4487 15.7976 24.2918 15.8512 24.0482 15.8512C23.8046 15.8512 23.6478 15.7976 23.565 15.7373C23.506 15.6943 23.4482 15.6251 23.4482 15.4494C23.4482 15.4006 23.453 15.3681 23.4576 15.3481C23.4614 15.3317 23.4651 15.3238 23.4664 15.3215C23.4682 15.3201 23.4735 15.3164 23.4843 15.3113C23.5154 15.2965 23.5742 15.2786 23.6776 15.2666C23.7796 15.2548 23.9009 15.2512 24.0482 15.2512C24.1956 15.2512 24.3169 15.2548 24.4189 15.2666C24.5222 15.2786 24.5811 15.2965 24.6122 15.3113C24.623 15.3164 24.6283 15.3201 24.6301 15.3215C24.6313 15.3238 24.6351 15.3317 24.6389 15.3481C24.6435 15.3681 24.6482 15.4006 24.6482 15.4494Z" fill="#18100D" stroke="black"/>
<path d="M23.9951 23.1994C23.9951 25.4086 22.2043 27.1994 19.9951 27.1994C17.786 27.1994 15.9951 25.4086 15.9951 23.1994C15.9951 20.9903 17.786 17.3994 19.9951 17.3994C22.2043 17.3994 23.9951 20.9903 23.9951 23.1994Z" fill="#AE4C22"/>
<path d="M20.5984 21.3974C20.5984 21.5731 20.5407 21.6423 20.4817 21.6853C20.3989 21.7456 20.242 21.7992 19.9984 21.7992C19.7548 21.7992 19.598 21.7456 19.5152 21.6853C19.4562 21.6423 19.3984 21.5731 19.3984 21.3974C19.3984 21.3486 19.4031 21.3161 19.4078 21.2961C19.4116 21.2797 19.4153 21.2718 19.4166 21.2695C19.4184 21.2681 19.4237 21.2644 19.4345 21.2593C19.4656 21.2445 19.5244 21.2266 19.6278 21.2146C19.7298 21.2028 19.8511 21.1992 19.9984 21.1992C20.1458 21.1992 20.2671 21.2028 20.3691 21.2146C20.4724 21.2266 20.5313 21.2445 20.5624 21.2593C20.5732 21.2644 20.5785 21.2681 20.5803 21.2695C20.5815 21.2718 20.5853 21.2797 20.5891 21.2961C20.5937 21.3161 20.5984 21.3486 20.5984 21.3974Z" fill="#18100D" stroke="black"/>
<path d="M26.7028 8.04826C28.5161 8.18585 29.9125 11.6536 30.8933 13.5247C32.5359 16.6584 33.8773 10.0371 33.3007 7.74952C32.7241 5.46194 31.9168 3.79279 30.3408 4.19005C28.7647 4.58731 25.1027 7.92686 26.7028 8.04826Z" fill="#18100D"/>
<path d="M10.435 10.4617C10.5818 8.81892 13.858 7.52152 15.6278 6.61575C18.592 5.0987 12.375 3.94789 10.2172 4.4918C8.05934 5.03571 6.48115 5.78249 6.83981 7.20541C7.19847 8.62833 10.3054 11.9113 10.435 10.4617Z" fill="#18100D"/>
</svg>
