<svg width="50" height="44" viewBox="0 0 50 44" fill="none" xmlns="http://www.w3.org/2000/svg">
<path fill-rule="evenodd" clip-rule="evenodd" d="M22.2821 42.391C23.1344 42.7988 23.9728 43.0143 25.1082 43.0143L25.1084 43.0145C27.0634 43.0145 28.8388 42.2284 30.1203 40.9605L45.1215 26.224C48.123 23.3667 50.199 19.4162 49.9848 14.8912C49.8527 12.0894 49.1454 9.66382 47.935 7.65753C45.6022 3.79072 41.4006 1.48088 35.8471 1.03301C32.0129 0.721992 28.476 1.94554 25.8609 4.34164C25.65 4.53302 25.4464 4.73125 25.2495 4.93631C25.1838 5.00142 25.125 5.06279 25.0628 5.13122L19.9646 10.1755L19.0111 11.1174L14.6921 5.93596C13.0962 4.16998 11.4935 3.41421 9.12057 3.39389H9.04807C7.66286 3.39389 6.37106 3.7837 5.26919 4.45135C5.16542 4.51231 5.06538 4.57327 4.96514 4.64108C4.86841 4.70556 4.77169 4.77336 4.67496 4.84448C4.65801 4.85716 4.64086 4.86982 4.62368 4.88252C4.56718 4.92425 4.51016 4.96637 4.45728 5.01057C4.39163 5.06137 4.32949 5.11217 4.26736 5.16649C4.21889 5.20713 4.17063 5.24777 4.12569 5.28841C4.03694 5.36556 3.81777 5.58058 3.73293 5.66382L3.7303 5.6664C3.72515 5.67146 3.72001 5.67651 3.71488 5.68158C3.76347 5.63077 3.81371 5.5797 3.86567 5.52829C1.17146 8.15972 0 10.9643 0 14.9937C0 19.023 1.65799 22.6696 4.33852 25.3013L4.335 25.3046L4.7219 25.6874L19.5885 40.3965L20.3933 41.1198C20.9606 41.6294 21.5942 42.0619 22.2821 42.391Z" fill="url(#paint0_linear_116_14)"/>
<defs>
<linearGradient id="paint0_linear_116_14" x1="-18.8492" y1="14.0461" x2="18.8439" y2="62.9068" gradientUnits="userSpaceOnUse">
<stop stop-color="white"/>
<stop offset="1" stop-color="#DB1414"/>
</linearGradient>
</defs>
</svg>
