<svg width="25" height="26" viewBox="0 0 25 26" fill="none" xmlns="http://www.w3.org/2000/svg">
<path d="M21.0938 3.5H8.59375C8.38655 3.5 8.18784 3.58231 8.04132 3.72882C7.89481 3.87534 7.8125 4.07405 7.8125 4.28125V8.1875H3.90625C3.69905 8.1875 3.50034 8.26981 3.35382 8.41632C3.20731 8.56284 3.125 8.76155 3.125 8.96875V21.4688C3.125 21.676 3.20731 21.8747 3.35382 22.0212C3.50034 22.1677 3.69905 22.25 3.90625 22.25H16.4062C16.6135 22.25 16.8122 22.1677 16.9587 22.0212C17.1052 21.8747 17.1875 21.676 17.1875 21.4688V17.5625H21.0938C21.301 17.5625 21.4997 17.4802 21.6462 17.3337C21.7927 17.1872 21.875 16.9885 21.875 16.7812V4.28125C21.875 4.07405 21.7927 3.87534 21.6462 3.72882C21.4997 3.58231 21.301 3.5 21.0938 3.5ZM15.625 20.6875H4.6875V9.75H15.625V20.6875ZM20.3125 16H17.1875V8.96875C17.1875 8.76155 17.1052 8.56284 16.9587 8.41632C16.8122 8.26981 16.6135 8.1875 16.4062 8.1875H9.375V5.0625H20.3125V16Z" fill="black"/>
</svg>
