<svg width="50" height="44" viewBox="0 0 50 44" fill="none" xmlns="http://www.w3.org/2000/svg">
<path fill-rule="evenodd" clip-rule="evenodd" d="M22.2821 42.3911C23.1344 42.799 23.9728 43.0144 25.1082 43.0144L25.1084 43.0146C27.0634 43.0146 28.8388 42.2286 30.1203 40.9606L45.1215 26.2241C48.123 23.3669 50.199 19.4163 49.9848 14.8914C49.8527 12.0895 49.1454 9.66394 47.935 7.65765C45.6022 3.79084 41.4006 1.481 35.8471 1.03313C32.0129 0.722114 28.476 1.94567 25.8609 4.34176C25.65 4.53315 25.4464 4.73137 25.2495 4.93643C25.1838 5.00154 25.125 5.06292 25.0628 5.13134L19.9646 10.1757L19.0111 11.1175L14.6921 5.93608C13.0962 4.17011 11.4935 3.41433 9.12057 3.39401H9.04807C7.66286 3.39401 6.37106 3.78382 5.26919 4.45148C5.16542 4.51243 5.06538 4.5734 4.96514 4.6412C4.86841 4.70568 4.77169 4.77348 4.67496 4.8446C4.65801 4.85728 4.64086 4.86994 4.62368 4.88264C4.56718 4.92437 4.51016 4.96649 4.45728 5.01069C4.39163 5.06149 4.32949 5.11229 4.26736 5.16661C4.21889 5.20725 4.17063 5.24789 4.12569 5.28853C4.03694 5.36568 3.81777 5.5807 3.73293 5.66394L3.7303 5.66653C3.72515 5.67158 3.72001 5.67664 3.71488 5.6817C3.76347 5.63089 3.81371 5.57982 3.86567 5.52841C1.17146 8.15985 0 10.9644 0 14.9938C0 19.0231 1.65799 22.6698 4.33852 25.3014L4.335 25.3047L4.7219 25.6875L19.5885 40.3966L20.3933 41.1199C20.9606 41.6295 21.5942 42.0621 22.2821 42.3911Z" fill="url(#paint0_linear_436_4792)"/>
<defs>
<linearGradient id="paint0_linear_436_4792" x1="25" y1="0.985474" x2="25" y2="43.0146" gradientUnits="userSpaceOnUse">
<stop stop-color="#FEF3C7"/>
<stop offset="1" stop-color="#F4DCA1"/>
</linearGradient>
</defs>
</svg>
